<?xml version="1.0" encoding="utf-8"?>
<!-- Generator: Adobe Illustrator 28.0.0, SVG Export Plug-In . SVG Version: 6.00 Build 0)  -->
<svg version="1.1" id="Calque_1" xmlns="http://www.w3.org/2000/svg" xmlns:xlink="http://www.w3.org/1999/xlink" x="0px" y="0px"
	 viewBox="0 0 130 30.8" style="enable-background:new 0 0 121 30.8;" xml:space="preserve">
<style type="text/css">
	.st0{fill:#D8FD00;}
	.st1{fill:#1CE496;}
	.st2{fill:#C0DF08;}
	.st3{fill:#4BD9A2;}
	.st4{fill:#2A2A2A;}
	.st5{fill:#FFFFFF;}
</style>
<g>
	<path class="st0" d="M12.6,25.2c0,0.1-0.1,0.1-0.1,0.2c-0.1,0.3-0.4,0.5-0.6,0.7c-0.3,0.2-0.9,0.5-1.5,0.2c-0.8-0.4-1.5-1-1.9-1.7
		c-0.8-1.6-1-3.6,0.7-6.5c0.2-0.3,0.3-0.5,0.5-0.8c0.7,0.4,1.3,0.9,1.8,1.4C13.5,20.6,13.8,22.9,12.6,25.2L12.6,25.2z"/>
	<path class="st0" d="M25.3,11.1c0,0.2-0.1,0.5-0.3,0.7c-0.6,0.9-4.2,1.8-6.9,3.7c-0.2,0.2-0.5,0.3-0.7,0.5c-0.3-1-0.6-2-1-2.9
		c-0.1-0.2-0.2-0.4-0.3-0.7c-0.2-0.4-0.4-0.7-0.6-1.1c0.2-0.2,0.5-0.3,0.7-0.5c3.5-2.4,6.1-2.2,7.4-2c0.8,0.2,1.4,0.7,1.6,1.4
		C25.3,10.5,25.3,10.8,25.3,11.1L25.3,11.1z"/>
	<path class="st1" d="M18.6,6.8c-0.8,1.3-2.6,1.8-4,1.1c0,0,0,0,0,0c-0.9-0.5-1.4-1.3-1.5-2.3c0-0.5,0.1-1,0.4-1.4
		c0.8-1.3,2.6-1.8,4-1.1c0.2,0.1,0.4,0.3,0.6,0.4c0.4,0.4,0.7,0.9,0.8,1.5C19,5.6,18.9,6.2,18.6,6.8L18.6,6.8z"/>
	<path class="st1" d="M12.5,25.4c-0.1,0.3-0.4,0.5-0.6,0.7c-0.3,0.2-0.9,0.5-1.5,0.2c0,0,2.2,0.3,2.3-2.8c0.1-2.2-1.7-4.6-3.5-5.4
		c0.2-0.3,0.3-0.5,0.5-0.8C13.4,19.6,14.2,22.4,12.5,25.4z"/>
	<path class="st2" d="M25,11.8c-0.6,0.9-4.2,1.8-6.9,3.7c-0.2,0.2-0.5,0.3-0.7,0.5c-0.3-1-0.6-2-1-2.9c2.5-2.1,6.6-3.4,7.6-3.2
		C25.5,10.2,25,11.8,25,11.8z"/>
	<path class="st1" d="M18.2,15.5c-0.2,0.2-0.5,0.3-0.7,0.5c-0.4-1.6-1.1-3.2-2-4.7c0.2-0.2,0.5-0.3,0.7-0.5
		C16.2,10.9,17.5,13,18.2,15.5z"/>
	<path class="st3" d="M12.2,25.8c-0.2,0.3-0.3,0.6-0.5,0.9c-0.4-0.1-0.8-0.2-1.2-0.4c0.6,0.2,1.1,0,1.5-0.2
		C12,26,12.1,25.9,12.2,25.8z"/>
	<path class="st4" d="M13.3,23c0.3-2.1-0.9-4.1-3.6-5.7c-0.6-0.4-1.2-0.7-2-1c-3-1.3-6.9-3.5-6.1-7c0.3-1.3,0.9-2.1,1.6-2.6
		c6.1,1.6,10.5,6.8,10.5,13C13.7,20.8,13.6,22,13.3,23z"/>
	<path class="st1" d="M18.6,6.8c-0.8,1.3-2.6,1.8-4,1.1c0,0,0,0,0,0c-0.2-0.4-0.3-0.8-0.3-1.2c0,0,0-0.1,0-0.1c0-1.7,1.5-3,3.4-3
		c0.1,0,0.3,0,0.4,0c0.4,0.4,0.7,0.9,0.8,1.5C19,5.6,18.9,6.2,18.6,6.8L18.6,6.8z"/>
	<path class="st1" d="M17.6,22.9c-0.4,1.2-1.1,2.1-1.9,2.8c-0.6,0.5-1.3,0.8-2,1c-0.7,0.2-1.4,0.2-2.1,0c-0.4-0.1-0.8-0.2-1.2-0.4
		c0.6,0.2,1.1,0,1.5-0.2c0.1-0.1,0.2-0.2,0.3-0.3c0.1-0.1,0.2-0.3,0.3-0.4c0.5-0.8,0.7-1.6,0.8-2.4c0.3-2.1-0.9-4.1-3.6-5.7
		c-0.6-0.4-1.2-0.7-2-1c-3-1.3-6.9-3.5-6.1-7c0.2-1,0.6-1.6,1.1-2.2C2.9,7,3.1,6.9,3.3,6.7c0.1-0.1,0.3-0.2,0.5-0.3
		C4.6,6,5.5,5.8,6.5,5.8c0,0,0,0,0,0c0,0,0.1,0,0.1,0c0.2,0,0.4,0,0.5,0.1c2.1,0.3,3.8,1,5.2,2.1c0,0,0,0,0,0
		c1.3,0.9,2.3,2.1,3.1,3.4c0.9,1.5,1.6,3.1,2,4.7C18.2,18.7,18.2,21.3,17.6,22.9z"/>
	<path class="st1" d="M18.9,5c-0.5,1.1-1.7,1.9-3.1,1.9c-0.5,0-1.1-0.1-1.5-0.3c-0.5-0.2-0.9-0.6-1.2-1c0-0.5,0.1-1,0.4-1.4
		c0.8-1.3,2.6-1.8,4-1.1c0.2,0.1,0.4,0.3,0.6,0.4C18.5,3.9,18.8,4.4,18.9,5L18.9,5z"/>
	<path class="st1" d="M13.6,5.8c0,0.1,0,0.2,0,0.3c0.1,0.7,0.4,1.2,0.9,1.7c-0.9-0.5-1.4-1.3-1.4-2.2c0-0.5,0.1-1,0.4-1.4
		c0.8-1.3,2.5-1.8,3.9-1.1C17.1,3,16.9,3,16.6,3C14.9,3,13.6,4.2,13.6,5.8L13.6,5.8z"/>
	<path class="st1" d="M17.6,22.9c-0.4,1.2-1.1,2.1-1.9,2.8c-0.6,0.5-1.3,0.8-2,1c-0.7,0.2-1.4,0.2-2.1,0c-0.4-0.1-0.8-0.2-1.2-0.4
		c0.6,0.2,1.1,0,1.5-0.2c0.1-0.1,0.2-0.2,0.3-0.3c0.1-0.1,0.2-0.3,0.3-0.4c0.5-0.8,0.7-1.6,0.8-2.4c0.3-2.1-0.9-4.1-3.6-5.7
		c-0.6-0.4-1.2-0.7-2-1c-3-1.3-6.9-3.5-6.1-7c0.2-1,0.6-1.6,1.1-2.2C2.9,7,3.1,6.9,3.3,6.7c0.1-0.1,0.3-0.2,0.5-0.3
		C4.6,6,5.5,5.8,6.5,5.8c0,0,0,0,0,0c0,0,0.1,0,0.1,0c0.2,0,0.4,0,0.5,0.1c2.1,0.3,3.8,1,5.2,2.1c0,0,0,0,0,0
		c1.3,0.9,2.3,2.1,3.1,3.4c0.9,1.5,1.6,3.1,2,4.7C18.2,18.7,18.2,21.3,17.6,22.9z"/>
</g>
<path class="st5" d="M45.2,12.9h4.6l-4.2,12.9h-4.9L38.6,18l-2.1,7.8h-4.9l-4.2-12.9h4.5l2.4,8.7l2.4-8.7h3.9l2.4,8.7L45.2,12.9z"/>
<path class="st5" d="M55.1,15.7c2.8,0,6.3,1.5,6,6.1h-8.5c0.2,1,0.9,1.8,2.6,1.8c1.3,0,1.9-0.6,2.2-1.1H61c-0.6,2.7-3.1,3.6-5.8,3.6
	c-3.2,0-6.4-1.4-6.4-5.2S52.1,15.7,55.1,15.7z M52.7,19.8h4.7c-0.3-1-1-1.6-2.3-1.6C53.7,18.2,53,18.9,52.7,19.8z"/>
<path class="st5" d="M68,15.7c2.8,0,6.3,1.5,6,6.1h-8.5c0.2,1,0.9,1.8,2.6,1.8c1.3,0,1.9-0.6,2.2-1.1h3.6c-0.6,2.7-3.1,3.6-5.8,3.6
	c-3.2,0-6.4-1.4-6.4-5.2S65,15.7,68,15.7z M65.6,19.8h4.7c-0.3-1-1-1.6-2.3-1.6C66.6,18.2,65.9,18.9,65.6,19.8z"/>
<path class="st5" d="M88.1,15.9h-8.4V18h7.9v3h-7.9v4.8h-4.4V12.9h12.8V15.9z"/>
<path class="st5" d="M91.5,15.2c-1.2,0-2.1-0.7-2.1-1.9c0-1.2,0.9-1.9,2.1-1.9c1.2,0,2.1,0.7,2.1,1.9C93.5,14.6,92.7,15.2,91.5,15.2
	z M89.4,25.8V16h4v9.8H89.4z"/>
<path class="st5" d="M100.4,23.2h6v2.6H94.8v-2.4l5.8-4.8h-5.5V16h11.1v2.5L100.4,23.2z"/>
<path class="st5" d="M113,23.2h6v2.6h-11.6v-2.4l5.8-4.8h-5.5V16h11.1v2.5L113,23.2z"/>
</svg>
