<svg xmlns="http://www.w3.org/2000/svg" width="252" height="30" viewBox="0 0 252 30" fill="none"><path d="M248.433 14.2054L248.423 14.2159C249.134 12.8144 250.326 12.2287 252 12.4588V15.1154C250.818 14.9271 249.929 15.1258 249.333 15.7115C248.737 16.2972 248.433 17.3012 248.433 18.7236V23.4405H245.609V12.6053H248.433V14.2054Z" fill="white"></path><path d="M240.933 11.6227V12.6058H244.206V15.0846H240.933V23.4411H238.109V15.0846H236.027V12.6058H238.109V11.6227C238.109 10.3363 238.433 9.33224 239.081 8.60012C239.73 7.86801 240.671 7.50195 241.916 7.50195C242.867 7.50195 243.683 7.65883 244.363 7.9726L243.673 10.2422C243.244 10.0539 242.794 9.95977 242.324 9.97022C241.884 9.97022 241.539 10.1166 241.299 10.4095C241.058 10.7023 240.933 11.1102 240.933 11.6227Z" fill="white"></path><path d="M232.924 23.6075L232.913 23.6284C232.411 23.6284 231.993 23.4611 231.658 23.116C231.324 22.7708 231.156 22.3525 231.156 21.8609C231.156 21.4007 231.324 21.0033 231.669 20.6791C232.014 20.3548 232.432 20.1875 232.924 20.1875C233.415 20.1875 233.823 20.3548 234.158 20.6791C234.493 21.0033 234.66 21.3903 234.66 21.84C234.66 22.3315 234.493 22.7499 234.158 23.095C233.823 23.4402 233.415 23.6075 232.924 23.6075Z" fill="white"></path><path d="M224.585 23.7439L224.554 23.7544C222.807 23.7544 221.395 23.2315 220.307 22.1856C219.22 21.1397 218.676 19.7591 218.676 18.0439C218.676 16.4019 219.199 15.0318 220.245 13.9441C221.29 12.8564 222.661 12.3125 224.344 12.3125C226.07 12.3125 227.44 12.8354 228.444 13.8918C229.448 14.9481 229.95 16.2764 229.95 17.8766C229.95 18.3158 229.929 18.6505 229.888 18.8806H221.468C221.562 19.6232 221.876 20.2193 222.41 20.6691C222.943 21.1188 223.675 21.3384 224.616 21.3384C225.871 21.3384 226.75 20.8573 227.252 19.9056L229.804 20.6586C229.448 21.4744 228.821 22.196 227.911 22.8131C227.001 23.4302 225.892 23.7439 224.585 23.7439ZM221.447 17.1131H227.179C227.106 16.4333 226.813 15.858 226.3 15.3978C225.788 14.9377 225.129 14.7076 224.313 14.7076C223.529 14.7076 222.88 14.9481 222.357 15.4188C221.834 15.8894 221.531 16.4542 221.447 17.1131Z" fill="white"></path><path d="M212.412 12.3027V12.3132C213.803 12.3132 214.859 12.742 215.592 13.5996C216.324 14.4572 216.69 15.6286 216.69 17.1138V23.4518H213.855V17.6472C213.855 16.8 213.657 16.1411 213.27 15.66C212.883 15.1789 212.308 14.9383 211.544 14.9383C210.76 14.9383 210.132 15.2207 209.651 15.796C209.17 16.3712 208.929 17.1347 208.929 18.0864V23.4413H206.105V12.606H208.929V13.9761C209.797 12.857 210.958 12.3027 212.412 12.3027Z" fill="white"></path><path d="M200.49 12.606H203.314V23.0544C203.314 24.5813 202.801 25.8259 201.776 26.7881C200.751 27.7503 199.402 28.2315 197.729 28.2315C195.292 28.2315 193.545 27.2797 192.499 25.3762L194.968 24.4977C195.553 25.4285 196.495 25.8991 197.791 25.9096C198.649 25.9096 199.308 25.6481 199.768 25.1147C200.228 24.5813 200.469 23.8911 200.479 23.0439V21.7366C199.632 22.7824 198.492 23.3054 197.059 23.3054C195.522 23.3054 194.246 22.772 193.231 21.7156C192.217 20.6593 191.715 19.3519 191.715 17.7936C191.715 16.1829 192.217 14.8651 193.221 13.8402C194.225 12.8152 195.511 12.3027 197.07 12.3027C198.513 12.3027 199.653 12.8257 200.49 13.8716V12.606ZM197.551 20.7639H197.54C198.408 20.7639 199.13 20.492 199.695 19.9376C200.26 19.3833 200.542 18.6721 200.542 17.8041C200.542 16.936 200.26 16.2248 199.695 15.6809C199.13 15.1371 198.419 14.8651 197.551 14.8651C196.651 14.8651 195.919 15.1371 195.354 15.6809C194.79 16.2248 194.507 16.936 194.507 17.8041C194.507 18.6721 194.79 19.3833 195.354 19.9376C195.919 20.492 196.651 20.7639 197.551 20.7639Z" fill="white"></path><path d="M188.16 11.079V11.0999C187.69 11.0999 187.292 10.943 186.968 10.6188C186.644 10.2946 186.477 9.89714 186.477 9.42649C186.477 8.9663 186.644 8.57933 186.968 8.26557C187.292 7.9518 187.69 7.79492 188.16 7.79492C188.631 7.79492 189.029 7.9518 189.353 8.26557C189.677 8.57933 189.844 8.9663 189.844 9.42649C189.844 9.89714 189.677 10.2946 189.353 10.6083C189.029 10.9221 188.631 11.079 188.16 11.079ZM186.696 23.4622V12.6269H189.541V23.4622H186.696Z" fill="white"></path><path d="M181.121 23.4406V7.80469H183.945V23.4406H181.121Z" fill="white"></path><path d="M174.174 12.3027V12.3132C175.565 12.3132 176.621 12.742 177.353 13.5996C178.085 14.4572 178.451 15.6286 178.451 17.1138V23.4518H175.617V17.6472C175.617 16.8 175.418 16.1411 175.031 15.66C174.644 15.1789 174.069 14.9383 173.306 14.9383C172.521 14.9383 171.894 15.2207 171.413 15.796C170.932 16.3712 170.691 17.1347 170.691 18.0864V23.4413H167.867V12.606H170.691V13.9761C171.559 12.857 172.72 12.3027 174.174 12.3027Z" fill="white"></path><path d="M160.351 23.7439L160.319 23.7544C158.573 23.7544 157.161 23.2315 156.073 22.1856C154.985 21.1397 154.441 19.7591 154.441 18.0439C154.441 16.4019 154.964 15.0318 156.01 13.9441C157.056 12.8564 158.426 12.3125 160.11 12.3125C161.836 12.3125 163.206 12.8354 164.21 13.8918C165.214 14.9481 165.716 16.2764 165.716 17.8766C165.716 18.3158 165.695 18.6505 165.653 18.8806H157.234C157.328 19.6232 157.642 20.2193 158.175 20.6691C158.709 21.1188 159.441 21.3384 160.382 21.3384C161.637 21.3384 162.516 20.8573 163.018 19.9056L165.57 20.6586C165.214 21.4744 164.586 22.196 163.677 22.8131C162.767 23.4302 161.658 23.7439 160.351 23.7439ZM157.213 17.1131H162.944C162.871 16.4333 162.578 15.858 162.066 15.3978C161.553 14.9377 160.894 14.7076 160.079 14.7076C159.294 14.7076 158.646 14.9481 158.123 15.4188C157.6 15.8894 157.297 16.4542 157.213 17.1131Z" fill="white"></path><path d="M149.494 7.80469L152.339 7.81515V23.451H149.483V22.1228C148.636 23.2105 147.475 23.7543 146.001 23.7543C144.484 23.7543 143.219 23.2105 142.194 22.1123C141.169 21.0141 140.656 19.6545 140.656 18.0334C140.656 16.3913 141.169 15.0212 142.194 13.9335C143.219 12.8458 144.495 12.302 146.011 12.302C147.496 12.302 148.657 12.8354 149.494 13.9126V7.80469ZM146.492 21.2233V21.2024C147.36 21.2024 148.092 20.8991 148.689 20.2925C149.285 19.6859 149.578 18.9224 149.578 17.9915C149.578 17.0816 149.285 16.3286 148.689 15.7324C148.092 15.1363 147.36 14.833 146.492 14.833C145.603 14.833 144.871 15.1258 144.296 15.722C143.721 16.3181 143.438 17.0816 143.438 18.0125C143.438 18.9537 143.721 19.7277 144.296 20.3238C144.871 20.92 145.603 21.2233 146.492 21.2233Z" fill="white"></path><path d="M136.504 14.2054L136.493 14.2159C137.204 12.8144 138.397 12.2287 140.07 12.4588V15.1154C138.888 14.9271 137.999 15.1258 137.403 15.7115C136.807 16.2972 136.504 17.3012 136.504 18.7236V23.4405H133.68V12.6053H136.504V14.2054Z" fill="white"></path><path d="M124.57 23.7446L124.559 23.7551C123.043 23.7551 121.777 23.2112 120.752 22.1131C119.727 21.0149 119.215 19.6553 119.215 18.0341C119.215 16.3921 119.727 15.022 120.752 13.9343C121.777 12.8466 123.053 12.3027 124.57 12.3027C126.055 12.3027 127.216 12.8361 128.053 13.9134V12.606H130.908V23.4413H128.053V22.1131C127.216 23.2008 126.055 23.7446 124.57 23.7446ZM125.051 21.2241V21.2032C125.919 21.2032 126.651 20.8998 127.247 20.2932C127.843 19.6866 128.136 18.9231 128.136 17.9923C128.136 17.0824 127.843 16.3294 127.247 15.7332C126.651 15.1371 125.919 14.8338 125.051 14.8338C124.162 14.8338 123.43 15.1266 122.854 15.7228C122.279 16.3189 121.997 17.0824 121.997 18.0132C121.997 18.9545 122.279 19.7285 122.854 20.3246C123.43 20.9208 124.162 21.2241 125.051 21.2241Z" fill="white"></path><path d="M114.248 7.80469L117.093 7.81515V23.451H114.237V22.1228C113.39 23.2105 112.229 23.7543 110.755 23.7543C109.238 23.7543 107.973 23.2105 106.948 22.1123C105.923 21.0141 105.41 19.6545 105.41 18.0334C105.41 16.3913 105.923 15.0212 106.948 13.9335C107.973 12.8458 109.249 12.302 110.765 12.302C112.25 12.302 113.411 12.8354 114.248 13.9126V7.80469ZM111.246 21.2233V21.2024C112.114 21.2024 112.846 20.8991 113.442 20.2925C114.039 19.6859 114.331 18.9224 114.331 17.9915C114.331 17.0816 114.039 16.3286 113.442 15.7324C112.846 15.1363 112.114 14.833 111.246 14.833C110.357 14.833 109.625 15.1258 109.05 15.722C108.475 16.3181 108.192 17.0816 108.192 18.0125C108.192 18.9537 108.475 19.7277 109.05 20.3238C109.625 20.92 110.357 21.2233 111.246 21.2233Z" fill="white"></path><path d="M99.123 12.3027V12.3132C100.514 12.3132 101.57 12.742 102.303 13.5996C103.035 14.4572 103.401 15.6286 103.401 17.1138V23.4518H100.566V17.6472C100.566 16.8 100.368 16.1411 99.9807 15.66C99.5937 15.1789 99.0185 14.9383 98.255 14.9383C97.4706 14.9383 96.843 15.2207 96.3619 15.796C95.8808 16.3712 95.6403 17.1347 95.6403 18.0864V23.4413H92.8164V12.606H95.6403V13.9761C96.5084 12.857 97.6693 12.3027 99.123 12.3027Z" fill="white"></path><path d="M83.8744 23.5591L83.864 23.5695C82.3474 23.5695 81.0819 23.0257 80.057 21.9275C79.032 20.8293 78.5195 19.4697 78.5195 17.8486C78.5195 16.2066 79.032 14.8365 80.057 13.7488C81.0819 12.661 82.3579 12.1172 83.8744 12.1172C85.3596 12.1172 86.5205 12.6506 87.3572 13.7278V12.4205H90.2124V23.2558H87.3572V21.9275C86.5205 23.0152 85.3596 23.5591 83.8744 23.5591ZM84.3555 21.0385V21.0176C85.2236 21.0176 85.9557 20.7143 86.5519 20.1077C87.148 19.5011 87.4409 18.7376 87.4409 17.8068C87.4409 16.8968 87.148 16.1438 86.5519 15.5477C85.9557 14.9515 85.2236 14.6482 84.3555 14.6482C83.4665 14.6482 82.7344 14.9411 82.1592 15.5372C81.584 16.1334 81.3016 16.8968 81.3016 17.8277C81.3016 18.769 81.584 19.5429 82.1592 20.1391C82.7344 20.7352 83.4665 21.0385 84.3555 21.0385Z" fill="white"></path><path d="M77.0684 20.6201L77.7586 22.9106C76.901 23.2557 76.0539 23.423 75.2276 23.423C74.0249 23.423 73.1254 23.0779 72.5188 22.3981C71.9122 21.7183 71.6089 20.7665 71.6089 19.5533V14.8991H69.7891V12.4204H71.6089V8.90625H74.4537V12.4204H77.6227V14.8991H74.4537V19.5533C74.4537 20.4632 74.8929 20.9234 75.7819 20.9234C76.2421 20.9234 76.6709 20.8188 77.0684 20.6201Z" fill="white"></path><path d="M64.244 23.5591L64.2126 23.5486C62.9262 23.5486 61.7967 23.2139 60.824 22.555C59.8513 21.8961 59.2238 21.1117 58.9414 20.2018L61.4933 19.4592C61.6816 19.9926 62.0267 20.4215 62.5288 20.7561C63.0308 21.0908 63.6269 21.2582 64.3277 21.2582C64.8611 21.2582 65.2899 21.1536 65.6246 20.9339C65.9592 20.7143 66.1266 20.4528 66.1266 20.1391C66.1266 19.6684 65.7292 19.3128 64.9238 19.0723L62.1627 18.2565C60.3743 17.744 59.4853 16.7818 59.4853 15.3699C59.4853 14.4704 59.9141 13.7069 60.7612 13.0689C61.6084 12.431 62.6334 12.1172 63.8361 12.1172C64.9761 12.1172 65.9802 12.3682 66.8378 12.8702C67.6954 13.3722 68.302 14.0311 68.6472 14.8574L66.137 15.5895C65.6664 14.7423 64.8924 14.324 63.8257 14.324C63.3968 14.324 63.0308 14.4181 62.7275 14.6168C62.4242 14.8156 62.2778 15.0456 62.2778 15.3071C62.2778 15.7045 62.5811 15.9869 63.1772 16.1647L65.8756 16.9387C66.8482 17.2211 67.6013 17.5871 68.1347 18.0264C68.6681 18.4657 68.9295 19.1246 68.9295 20.0136C68.9295 21.0385 68.4903 21.8857 67.6117 22.555C66.7332 23.2244 65.6141 23.5591 64.244 23.5591Z" fill="white"></path><path d="M24.449 29.4996C20.2546 29.4996 16.0583 29.481 11.8621 29.5107C10.6039 29.5107 9.35134 29.5646 8.12479 29.2469C3.90249 28.1578 1.33045 25.4371 0.334347 21.2204C-0.291936 18.5703 -0.0596352 15.9778 1.21152 13.56C3.06992 10.0105 6.04338 7.94578 10.039 7.48676C12.8043 7.16897 15.3521 7.92348 17.69 9.41579C19.5763 10.6219 21.2098 12.1216 22.7932 13.6901C23.2875 14.177 23.7949 14.6509 24.2799 15.149C24.5029 15.3813 24.6516 15.3497 24.8672 15.149C25.9915 14.0785 27.049 12.9393 28.2216 11.9209C30.067 10.319 32.0202 8.86941 34.3655 8.08516C38.1697 6.81216 41.7713 7.24331 45.0588 9.59419C46.8949 10.9062 47.9375 12.7944 48.5712 14.9167C48.9887 16.2189 49.1699 17.5853 49.1064 18.9513C48.7496 24.586 44.6797 28.628 39.5802 29.4253C38.7514 29.5554 37.9076 29.4736 37.0732 29.4754C32.8658 29.4884 28.6602 29.4754 24.4528 29.4754L24.449 29.4996Z" fill="#00BC9C"></path><path d="M24.7455 0.48438C29.0384 0.638628 32.5006 2.35208 34.9667 5.94067C35.0169 6.01314 35.0597 6.0912 35.1117 6.16182C35.212 6.30491 35.1693 6.35881 35.0039 6.39969C33.6038 6.73592 32.2323 7.18208 30.9024 7.73403C30.75 7.79907 30.6924 7.73403 30.605 7.63925C29.4449 6.27463 27.8278 5.37888 26.0557 5.11925C23.1788 4.68624 20.7295 5.51695 18.7893 7.72102C18.6313 7.90686 18.5421 7.91801 18.3358 7.79907C17.1823 7.11788 15.957 6.5663 14.6822 6.15438C14.4165 6.07075 14.448 5.99456 14.5781 5.80872C16.4849 3.04527 19.1145 1.39314 22.3835 0.716681C23.1612 0.561442 23.9524 0.483629 24.7455 0.48438Z" fill="#00BC9C"></path><path d="M20.8672 25.0793C22.3167 23.7785 23.6251 22.4515 24.9668 21.1525C26.4926 19.6769 27.8585 18.0434 29.3824 16.5641C30.7428 15.2446 32.1514 13.9846 33.824 13.0499C35.3107 12.2136 36.9015 11.749 38.6243 11.8791C39.8799 11.9508 41.0821 12.4111 42.0647 13.1962C43.0472 13.9813 43.7614 15.0524 44.1084 16.2612C45.1008 19.5246 43.7553 22.8827 40.8395 24.3843C39.9331 24.84 38.9264 25.0599 37.9125 25.0236C35.8106 24.992 33.7069 25.0236 31.6051 25.0347C28.1051 25.0521 24.6051 25.0713 21.1051 25.0923C21.0456 25.0923 21.001 25.0868 20.8672 25.0793Z" fill="black"></path><path d="M11.3173 11.8574C12.9899 11.8574 14.4766 12.4577 15.8574 13.3441C17.3776 14.3198 18.645 15.591 19.9347 16.8361C20.4328 17.3174 20.9216 17.8099 21.4215 18.2931C21.5423 18.4083 21.5943 18.4994 21.4512 18.6462C19.669 20.4581 17.9202 22.3054 15.7273 23.6472C14.1848 24.5912 12.5401 25.1525 10.7096 25.0874C7.87367 24.9889 5.56739 23.0618 4.90951 20.2054C4.40588 18.0125 4.79243 16.0054 6.22526 14.2585C7.52243 12.6547 9.25075 11.8797 11.3173 11.8574Z" fill="black"></path></svg>